<?xml version="1.0" encoding="UTF-8" standalone="no"?>
<!DOCTYPE svg PUBLIC "-//W3C//DTD SVG 1.1//EN"
 "http://www.w3.org/Graphics/SVG/1.1/DTD/svg11.dtd">
<!-- Generated by graphviz version 12.2.1 (20241206.2353)
 -->
<!-- Title: G Pages: 1 -->
<svg width="224pt" height="177pt"
 viewBox="0.00 0.00 224.00 176.50" xmlns="http://www.w3.org/2000/svg" xmlns:xlink="http://www.w3.org/1999/xlink">
<g id="graph0" class="graph" transform="scale(1 1) rotate(0) translate(4 172.5)">
<title>G</title>
<polygon fill="white" stroke="none" points="-4,4 -4,-172.5 220,-172.5 220,4 -4,4"/>
<text text-anchor="middle" x="108" y="-151.2" font-family="Times New Roman,serif" font-size="14.00">Estado: 2</text>
<!-- estado -->
<g id="node1" class="node">
<title>estado</title>
<polygon fill="none" stroke="black" points="72.38,-89.25 72.38,-111.75 91.12,-111.75 91.12,-89.25 72.38,-89.25"/>
<polygon fill="none" stroke="black" points="91.12,-89.25 91.12,-111.75 109.12,-111.75 109.12,-89.25 91.12,-89.25"/>
<text text-anchor="start" x="96.75" y="-95.45" font-family="Times New Roman,serif" font-size="14.00">1</text>
<polygon fill="none" stroke="black" points="109.12,-89.25 109.12,-111.75 126.38,-111.75 126.38,-89.25 109.12,-89.25"/>
<text text-anchor="start" x="114.38" y="-95.45" font-family="Times New Roman,serif" font-size="14.00">2</text>
<polygon fill="none" stroke="black" points="126.38,-89.25 126.38,-111.75 143.62,-111.75 143.62,-89.25 126.38,-89.25"/>
<text text-anchor="start" x="131.62" y="-95.45" font-family="Times New Roman,serif" font-size="14.00">3</text>
<polygon fill="none" stroke="black" points="72.38,-60.75 72.38,-89.25 91.12,-89.25 91.12,-60.75 72.38,-60.75"/>
<text text-anchor="start" x="78.38" y="-69.95" font-family="Times New Roman,serif" font-size="14.00">1</text>
<polygon fill="none" stroke="black" points="91.12,-60.75 91.12,-89.25 109.12,-89.25 109.12,-60.75 91.12,-60.75"/>
<text text-anchor="start" x="94.12" y="-69.95" font-family="Times New Roman,serif" font-size="14.00">sd</text>
<polygon fill="none" stroke="black" points="109.12,-60.75 109.12,-89.25 126.38,-89.25 126.38,-60.75 109.12,-60.75"/>
<text text-anchor="start" x="112.12" y="-69.95" font-family="Times New Roman,serif" font-size="14.00">fd</text>
<polygon fill="none" stroke="black" points="126.38,-60.75 126.38,-89.25 143.62,-89.25 143.62,-60.75 126.38,-60.75"/>
<text text-anchor="start" x="129.38" y="-69.95" font-family="Times New Roman,serif" font-size="14.00">gf</text>
<polygon fill="none" stroke="black" points="72.38,-32.25 72.38,-60.75 91.12,-60.75 91.12,-32.25 72.38,-32.25"/>
<text text-anchor="start" x="78.38" y="-41.45" font-family="Times New Roman,serif" font-size="14.00">2</text>
<polygon fill="red" stroke="none" points="91.12,-32.25 91.12,-60.75 109.12,-60.75 109.12,-32.25 91.12,-32.25"/>
<polygon fill="none" stroke="black" points="91.12,-32.25 91.12,-60.75 109.12,-60.75 109.12,-32.25 91.12,-32.25"/>
<text text-anchor="start" x="94.5" y="-41.45" font-family="Times New Roman,serif" font-size="14.00">as</text>
<polygon fill="red" stroke="none" points="109.12,-32.25 109.12,-60.75 126.38,-60.75 126.38,-32.25 109.12,-32.25"/>
<polygon fill="none" stroke="black" points="109.12,-32.25 109.12,-60.75 126.38,-60.75 126.38,-32.25 109.12,-32.25"/>
<text text-anchor="start" x="113.25" y="-41.45" font-family="Times New Roman,serif" font-size="14.00">rf</text>
<polygon fill="none" stroke="black" points="126.38,-32.25 126.38,-60.75 143.62,-60.75 143.62,-32.25 126.38,-32.25"/>
<text text-anchor="start" x="129.75" y="-41.45" font-family="Times New Roman,serif" font-size="14.00">iu</text>
</g>
</g>
</svg>
