<?xml version="1.0" encoding="UTF-8" standalone="no"?>
<!DOCTYPE svg PUBLIC "-//W3C//DTD SVG 1.1//EN"
 "http://www.w3.org/Graphics/SVG/1.1/DTD/svg11.dtd">
<!-- Generated by graphviz version 12.2.1 (20241206.2353)
 -->
<!-- Title: G Pages: 1 -->
<svg width="224pt" height="177pt"
 viewBox="0.00 0.00 224.00 176.50" xmlns="http://www.w3.org/2000/svg" xmlns:xlink="http://www.w3.org/1999/xlink">
<g id="graph0" class="graph" transform="scale(1 1) rotate(0) translate(4 172.5)">
<title>G</title>
<polygon fill="white" stroke="none" points="-4,4 -4,-172.5 220,-172.5 220,4 -4,4"/>
<text text-anchor="middle" x="108" y="-151.2" font-family="Times New Roman,serif" font-size="14.00">Estado: 1</text>
<!-- estado -->
<g id="node1" class="node">
<title>estado</title>
<polygon fill="none" stroke="black" points="61.12,-103.5 61.12,-126 79.88,-126 79.88,-103.5 61.12,-103.5"/>
<polygon fill="none" stroke="black" points="79.88,-103.5 79.88,-126 95.62,-126 95.62,-103.5 79.88,-103.5"/>
<text text-anchor="start" x="84.38" y="-109.7" font-family="Times New Roman,serif" font-size="14.00">1</text>
<polygon fill="none" stroke="black" points="95.62,-103.5 95.62,-126 120.38,-126 120.38,-103.5 95.62,-103.5"/>
<text text-anchor="start" x="104.62" y="-109.7" font-family="Times New Roman,serif" font-size="14.00">2</text>
<polygon fill="none" stroke="black" points="120.38,-103.5 120.38,-126 136.12,-126 136.12,-103.5 120.38,-103.5"/>
<text text-anchor="start" x="124.88" y="-109.7" font-family="Times New Roman,serif" font-size="14.00">3</text>
<polygon fill="none" stroke="black" points="136.12,-103.5 136.12,-126 154.88,-126 154.88,-103.5 136.12,-103.5"/>
<text text-anchor="start" x="142.12" y="-109.7" font-family="Times New Roman,serif" font-size="14.00">4</text>
<polygon fill="none" stroke="black" points="61.12,-75 61.12,-103.5 79.88,-103.5 79.88,-75 61.12,-75"/>
<text text-anchor="start" x="67.12" y="-84.2" font-family="Times New Roman,serif" font-size="14.00">1</text>
<polygon fill="none" stroke="black" points="79.88,-75 79.88,-103.5 95.62,-103.5 95.62,-75 79.88,-75"/>
<text text-anchor="start" x="82.88" y="-84.2" font-family="Times New Roman,serif" font-size="14.00">A</text>
<polygon fill="none" stroke="black" points="95.62,-75 95.62,-103.5 120.38,-103.5 120.38,-75 95.62,-75"/>
<text text-anchor="start" x="98.62" y="-84.2" font-family="Times New Roman,serif" font-size="14.00">AR</text>
<polygon fill="none" stroke="black" points="120.38,-75 120.38,-103.5 136.12,-103.5 136.12,-75 120.38,-75"/>
<text text-anchor="start" x="123.75" y="-84.2" font-family="Times New Roman,serif" font-size="14.00">C</text>
<polygon fill="none" stroke="black" points="136.12,-75 136.12,-103.5 154.88,-103.5 154.88,-75 136.12,-75"/>
<text text-anchor="start" x="140.62" y="-84.2" font-family="Times New Roman,serif" font-size="14.00">D</text>
<polygon fill="none" stroke="black" points="61.12,-46.5 61.12,-75 79.88,-75 79.88,-46.5 61.12,-46.5"/>
<text text-anchor="start" x="67.12" y="-55.7" font-family="Times New Roman,serif" font-size="14.00">2</text>
<polygon fill="none" stroke="black" points="79.88,-46.5 79.88,-75 95.62,-75 95.62,-46.5 79.88,-46.5"/>
<text text-anchor="start" x="83.62" y="-55.7" font-family="Times New Roman,serif" font-size="14.00">E</text>
<polygon fill="none" stroke="black" points="95.62,-46.5 95.62,-75 120.38,-75 120.38,-46.5 95.62,-46.5"/>
<text text-anchor="start" x="104.25" y="-55.7" font-family="Times New Roman,serif" font-size="14.00">F</text>
<polygon fill="none" stroke="black" points="120.38,-46.5 120.38,-75 136.12,-75 136.12,-46.5 120.38,-46.5"/>
<text text-anchor="start" x="123.38" y="-55.7" font-family="Times New Roman,serif" font-size="14.00">G</text>
<polygon fill="none" stroke="black" points="136.12,-46.5 136.12,-75 154.88,-75 154.88,-46.5 136.12,-46.5"/>
<text text-anchor="start" x="140.62" y="-55.7" font-family="Times New Roman,serif" font-size="14.00">H</text>
<polygon fill="none" stroke="black" points="61.12,-18 61.12,-46.5 79.88,-46.5 79.88,-18 61.12,-18"/>
<text text-anchor="start" x="67.12" y="-27.2" font-family="Times New Roman,serif" font-size="14.00">3</text>
<polygon fill="none" stroke="black" points="79.88,-18 79.88,-46.5 95.62,-46.5 95.62,-18 79.88,-18"/>
<text text-anchor="start" x="85.5" y="-27.2" font-family="Times New Roman,serif" font-size="14.00">I</text>
<polygon fill="red" stroke="none" points="95.62,-18 95.62,-46.5 120.38,-46.5 120.38,-18 95.62,-18"/>
<polygon fill="none" stroke="black" points="95.62,-18 95.62,-46.5 120.38,-46.5 120.38,-18 95.62,-18"/>
<text text-anchor="start" x="100.5" y="-27.2" font-family="Times New Roman,serif" font-size="14.00">JK</text>
<polygon fill="red" stroke="none" points="120.38,-18 120.38,-46.5 136.12,-46.5 136.12,-18 120.38,-18"/>
<polygon fill="none" stroke="black" points="120.38,-18 120.38,-46.5 136.12,-46.5 136.12,-18 120.38,-18"/>
<text text-anchor="start" x="124.12" y="-27.2" font-family="Times New Roman,serif" font-size="14.00">L</text>
<polygon fill="none" stroke="black" points="136.12,-18 136.12,-46.5 154.88,-46.5 154.88,-18 136.12,-18"/>
<text text-anchor="start" x="139.12" y="-27.2" font-family="Times New Roman,serif" font-size="14.00">M</text>
</g>
</g>
</svg>
