<?xml version="1.0" encoding="UTF-8" standalone="no"?>
<!DOCTYPE svg PUBLIC "-//W3C//DTD SVG 1.1//EN"
 "http://www.w3.org/Graphics/SVG/1.1/DTD/svg11.dtd">
<!-- Generated by graphviz version 12.2.1 (20241206.2353)
 -->
<!-- Title: G Pages: 1 -->
<svg width="260pt" height="177pt"
 viewBox="0.00 0.00 260.25 176.50" xmlns="http://www.w3.org/2000/svg" xmlns:xlink="http://www.w3.org/1999/xlink">
<g id="graph0" class="graph" transform="scale(1 1) rotate(0) translate(4 172.5)">
<title>G</title>
<polygon fill="white" stroke="none" points="-4,4 -4,-172.5 256.25,-172.5 256.25,4 -4,4"/>
<text text-anchor="middle" x="126.12" y="-151.2" font-family="Times New Roman,serif" font-size="14.00">Estado: 3</text>
<!-- estado -->
<g id="node1" class="node">
<title>estado</title>
<polygon fill="none" stroke="black" points="8,-103.5 8,-126 26.75,-126 26.75,-103.5 8,-103.5"/>
<polygon fill="none" stroke="black" points="26.75,-103.5 26.75,-126 83.75,-126 83.75,-103.5 26.75,-103.5"/>
<text text-anchor="start" x="51.88" y="-109.7" font-family="Times New Roman,serif" font-size="14.00">1</text>
<polygon fill="none" stroke="black" points="83.75,-103.5 83.75,-126 138.5,-126 138.5,-103.5 83.75,-103.5"/>
<text text-anchor="start" x="107.75" y="-109.7" font-family="Times New Roman,serif" font-size="14.00">2</text>
<polygon fill="none" stroke="black" points="138.5,-103.5 138.5,-126 189.5,-126 189.5,-103.5 138.5,-103.5"/>
<text text-anchor="start" x="160.62" y="-109.7" font-family="Times New Roman,serif" font-size="14.00">3</text>
<polygon fill="none" stroke="black" points="189.5,-103.5 189.5,-126 244.25,-126 244.25,-103.5 189.5,-103.5"/>
<text text-anchor="start" x="213.5" y="-109.7" font-family="Times New Roman,serif" font-size="14.00">4</text>
<polygon fill="none" stroke="black" points="8,-75 8,-103.5 26.75,-103.5 26.75,-75 8,-75"/>
<text text-anchor="start" x="14" y="-84.2" font-family="Times New Roman,serif" font-size="14.00">1</text>
<polygon fill="red" stroke="none" points="26.75,-75 26.75,-103.5 83.75,-103.5 83.75,-75 26.75,-75"/>
<polygon fill="none" stroke="black" points="26.75,-75 26.75,-103.5 83.75,-103.5 83.75,-75 26.75,-75"/>
<text text-anchor="start" x="32.75" y="-84.2" font-family="Times New Roman,serif" font-size="14.00">AGVST</text>
<polygon fill="red" stroke="none" points="83.75,-75 83.75,-103.5 138.5,-103.5 138.5,-75 83.75,-75"/>
<polygon fill="none" stroke="black" points="83.75,-75 83.75,-103.5 138.5,-103.5 138.5,-75 83.75,-75"/>
<text text-anchor="start" x="88.25" y="-84.2" font-family="Times New Roman,serif" font-size="14.00">LEGAG</text>
<polygon fill="red" stroke="none" points="138.5,-75 138.5,-103.5 189.5,-103.5 189.5,-75 138.5,-75"/>
<polygon fill="none" stroke="black" points="138.5,-75 138.5,-103.5 189.5,-103.5 189.5,-75 138.5,-75"/>
<text text-anchor="start" x="141.5" y="-84.2" font-family="Times New Roman,serif" font-size="14.00">KRRRL</text>
<polygon fill="red" stroke="none" points="189.5,-75 189.5,-103.5 244.25,-103.5 244.25,-75 189.5,-75"/>
<polygon fill="none" stroke="black" points="189.5,-75 189.5,-103.5 244.25,-103.5 244.25,-75 189.5,-75"/>
<text text-anchor="start" x="192.5" y="-84.2" font-family="Times New Roman,serif" font-size="14.00">MNPQR</text>
<polygon fill="none" stroke="black" points="8,-46.5 8,-75 26.75,-75 26.75,-46.5 8,-46.5"/>
<text text-anchor="start" x="14" y="-55.7" font-family="Times New Roman,serif" font-size="14.00">2</text>
<polygon fill="none" stroke="black" points="26.75,-46.5 26.75,-75 83.75,-75 83.75,-46.5 26.75,-46.5"/>
<text text-anchor="start" x="29.75" y="-55.7" font-family="Times New Roman,serif" font-size="14.00">TUVWX</text>
<polygon fill="none" stroke="black" points="83.75,-46.5 83.75,-75 138.5,-75 138.5,-46.5 83.75,-46.5"/>
<text text-anchor="start" x="88.25" y="-55.7" font-family="Times New Roman,serif" font-size="14.00">YZABC</text>
<polygon fill="none" stroke="black" points="138.5,-46.5 138.5,-75 189.5,-75 189.5,-46.5 138.5,-46.5"/>
<text text-anchor="start" x="141.5" y="-55.7" font-family="Times New Roman,serif" font-size="14.00">DEFGH</text>
<polygon fill="none" stroke="black" points="189.5,-46.5 189.5,-75 244.25,-75 244.25,-46.5 189.5,-46.5"/>
<text text-anchor="start" x="196.62" y="-55.7" font-family="Times New Roman,serif" font-size="14.00">IJKLM</text>
<polygon fill="none" stroke="black" points="8,-18 8,-46.5 26.75,-46.5 26.75,-18 8,-18"/>
<text text-anchor="start" x="14" y="-27.2" font-family="Times New Roman,serif" font-size="14.00">3</text>
<polygon fill="none" stroke="black" points="26.75,-18 26.75,-46.5 83.75,-46.5 83.75,-18 26.75,-18"/>
<text text-anchor="start" x="32.38" y="-27.2" font-family="Times New Roman,serif" font-size="14.00">NOPQR</text>
<polygon fill="none" stroke="black" points="83.75,-18 83.75,-46.5 138.5,-46.5 138.5,-18 83.75,-18"/>
<text text-anchor="start" x="86.75" y="-27.2" font-family="Times New Roman,serif" font-size="14.00">STUVW</text>
<polygon fill="none" stroke="black" points="138.5,-18 138.5,-46.5 189.5,-46.5 189.5,-18 138.5,-18"/>
<text text-anchor="start" x="141.88" y="-27.2" font-family="Times New Roman,serif" font-size="14.00">XYZA1</text>
<polygon fill="none" stroke="black" points="189.5,-18 189.5,-46.5 244.25,-46.5 244.25,-18 189.5,-18"/>
<text text-anchor="start" x="200" y="-27.2" font-family="Times New Roman,serif" font-size="14.00">23456</text>
</g>
</g>
</svg>
